<svg width="71" height="71" viewBox="0 0 71 71" fill="none" xmlns="http://www.w3.org/2000/svg">
<path d="M35.5 7.1C19.8161 7.1 7.1 19.8161 7.1 35.5C7.1 48.8078 16.2637 59.9429 28.6177 63.0243C28.4852 62.6409 28.4 62.196 28.4 61.6446V56.7905C27.2474 56.7905 25.3162 56.7905 24.8311 56.7905C22.888 56.7905 21.1604 55.9551 20.3226 54.4026C19.3925 52.6773 19.2315 50.0384 16.9264 48.4244C16.2424 47.8871 16.7631 47.2742 17.5512 47.357C19.0067 47.7688 20.2137 48.7675 21.3497 50.2491C22.481 51.733 23.0135 52.069 25.1269 52.069C26.1517 52.069 27.6853 52.0099 29.1289 51.7827C29.9052 49.8112 31.2471 47.996 32.8872 47.1393C23.43 46.1666 18.9168 41.4616 18.9168 35.074C18.9168 32.3239 20.0883 29.6638 22.0786 27.4226C21.4254 25.1979 20.6042 20.661 22.3295 18.9333C26.5848 18.9333 29.1573 21.6929 29.775 22.4384C31.8956 21.7118 34.2244 21.3 36.6715 21.3C39.1234 21.3 41.4616 21.7118 43.5869 22.4431C44.1975 21.7023 46.7724 18.9333 51.0372 18.9333C52.7696 20.6634 51.9389 25.2192 51.2786 27.4391C53.2571 29.6756 54.4215 32.3287 54.4215 35.074C54.4215 41.4569 49.9154 46.1595 40.4724 47.1369C43.071 48.493 44.9667 52.3033 44.9667 55.1741V61.6446C44.9667 61.8907 44.9122 62.0682 44.8838 62.2788C55.9504 58.3999 63.9 47.8919 63.9 35.5C63.9 19.8161 51.1839 7.1 35.5 7.1Z" fill="#76949F"/>
</svg>
