<svg width="39" height="39" viewBox="0 0 39 39" fill="none" xmlns="http://www.w3.org/2000/svg">
<path d="M19.5 3.9C10.8849 3.9 3.9 10.8849 3.9 19.5C3.9 26.8099 8.9336 32.9264 15.7196 34.619C15.6468 34.4084 15.6 34.164 15.6 33.8611V31.1948C14.9669 31.1948 13.9061 31.1948 13.6396 31.1948C12.5723 31.1948 11.6233 30.7359 11.1631 29.8831C10.6522 28.9354 10.5638 27.4859 9.2976 26.5993C8.9219 26.3042 9.2079 25.9675 9.6408 26.013C10.4403 26.2392 11.1033 26.7878 11.7273 27.6016C12.3487 28.4167 12.6412 28.6013 13.8021 28.6013C14.365 28.6013 15.2074 28.5688 16.0004 28.444C16.4268 27.3611 17.1639 26.364 18.0648 25.8934C12.87 25.3591 10.3909 22.7747 10.3909 19.266C10.3909 17.7554 11.0344 16.2942 12.1277 15.0631C11.7689 13.8411 11.3178 11.349 12.2655 10.4C14.6029 10.4 16.016 11.9158 16.3553 12.3253C17.5201 11.9262 18.7993 11.7 20.1435 11.7C21.4903 11.7 22.7747 11.9262 23.9421 12.3279C24.2775 11.921 25.6919 10.4 28.0345 10.4C28.9861 11.3503 28.5298 13.8528 28.1671 15.0722C29.2539 16.3007 29.8935 17.758 29.8935 19.266C29.8935 22.7721 27.4183 25.3552 22.2313 25.8921C23.6587 26.637 24.7 28.73 24.7 30.3069V33.8611C24.7 33.9963 24.6701 34.0938 24.6545 34.2095C30.7333 32.0788 35.1 26.3068 35.1 19.5C35.1 10.8849 28.1151 3.9 19.5 3.9Z" fill="#76949F"/>
</svg>
