<svg width="36" height="36" viewBox="0 0 36 36" fill="none" xmlns="http://www.w3.org/2000/svg">
<path d="M5.76 2.16703C3.2616 2.16703 1.44703 3.66424 1.44703 5.72344C1.44703 7.78984 3.3048 9.35297 5.76 9.35297C8.2584 9.35297 10.073 7.82685 10.073 5.68125C9.95777 3.61485 8.1792 2.16703 5.76 2.16703ZM2.16 10.8C1.764 10.8 1.44 11.124 1.44 11.52V32.4C1.44 32.796 1.764 33.12 2.16 33.12H9.36C9.756 33.12 10.08 32.796 10.08 32.4V11.52C10.08 11.124 9.756 10.8 9.36 10.8H2.16ZM12.96 10.8C12.564 10.8 12.24 11.124 12.24 11.52V32.4C12.24 32.796 12.564 33.12 12.96 33.12H19.44C19.8374 33.12 20.16 32.7974 20.16 32.4V21.6V21.42V21.24C20.16 19.5336 21.4708 18.1437 23.1412 18.0141C23.2276 17.9997 23.3136 18 23.4 18C23.4864 18 23.5723 17.9997 23.6587 18.0141C25.3291 18.1437 26.64 19.5336 26.64 21.24V32.4C26.64 32.7974 26.9626 33.12 27.36 33.12H33.84C34.236 33.12 34.56 32.796 34.56 32.4V20.16C34.56 15.5016 32.0609 10.8 26.4881 10.8C23.9537 10.8 22.0392 11.7794 20.88 12.593V11.52C20.88 11.124 20.556 10.8 20.16 10.8H12.96Z" fill="#76949F"/>
</svg>
