<svg width="20" height="20" viewBox="0 0 20 20" fill="none" xmlns="http://www.w3.org/2000/svg">
<path d="M3.2 1.20391C1.812 1.20391 0.803906 2.03569 0.803906 3.17969C0.803906 4.32769 1.836 5.19609 3.2 5.19609C4.588 5.19609 5.59609 4.34825 5.59609 3.15625C5.53209 2.00825 4.544 1.20391 3.2 1.20391ZM1.2 6C0.98 6 0.8 6.18 0.8 6.4V18C0.8 18.22 0.98 18.4 1.2 18.4H5.2C5.42 18.4 5.6 18.22 5.6 18V6.4C5.6 6.18 5.42 6 5.2 6H1.2ZM7.2 6C6.98 6 6.8 6.18 6.8 6.4V18C6.8 18.22 6.98 18.4 7.2 18.4H10.8C11.0208 18.4 11.2 18.2208 11.2 18V12V11.9V11.8C11.2 10.852 11.9283 10.0798 12.8563 10.0078C12.9043 9.99981 12.952 10 13 10C13.048 10 13.0958 9.99981 13.1438 10.0078C14.0718 10.0798 14.8 10.852 14.8 11.8V18C14.8 18.2208 14.9792 18.4 15.2 18.4H18.8C19.02 18.4 19.2 18.22 19.2 18V11.2C19.2 8.612 17.8116 6 14.7156 6C13.3076 6 12.244 6.54409 11.6 6.99609V6.4C11.6 6.18 11.42 6 11.2 6H7.2Z" fill="#76949F"/>
</svg>
